<?xml version="1.0" encoding="utf-8" ?><svg xmlns="http://www.w3.org/2000/svg" xmlns:xlink="http://www.w3.org/1999/xlink" width="616" height="195" viewBox="0 0 616 195"><path fill="white" transform="scale(1.86103 1.85714)" d="M0 0L331 0L331 105L0 105L0 0Z"/><path fill="#010101" transform="scale(1.86103 1.85714)" d="M149.879 22.125C153.453 21.9803 167.465 21.8945 170.173 22.3571C170.384 23.5258 170.435 25.1284 170.437 26.3278C170.448 33.1877 170.467 40.0286 170.453 46.8904C170.445 50.5915 170.538 54.5068 170.299 58.2019C170.267 58.7061 170.102 59.1361 169.743 59.5029C169.022 59.9356 168.657 59.8874 167.812 59.8884C164.677 59.9492 149.544 60.2183 147.444 59.5878C146.417 58.5921 146.205 23.9557 147.148 22.5079C147.842 22.0301 149.003 22.1326 149.879 22.125Z"/><path fill="white" transform="scale(1.86103 1.85714)" d="M147.663 22.9793C154.784 23.1123 162.251 22.9169 169.445 22.9841L169.414 46.5724C169.418 49.8564 169.605 55.7706 169.261 58.8596C168.402 59.0589 163.452 59.0116 162.32 59.0093L147.711 58.9632C147.486 55.4653 147.652 50.1674 147.653 46.5658L147.663 22.9793Z"/><path fill="#010101" transform="scale(1.86103 1.85714)" d="M158.407 41.5957L158.755 41.7702C159.855 43.8019 164.782 54.7242 164.551 56.5896L164.343 56.7034C162.901 55.8429 162.33 53.919 161.794 52.4211C160.893 52.4099 159.785 52.3196 158.868 52.2713L155.326 52.359C154.841 53.7007 154.123 56.2078 152.7 56.6428L152.368 56.4049C152.194 54.678 157.402 44.3582 158.407 41.5957Z"/><path fill="white" transform="scale(1.86103 1.85714)" d="M158.365 45.3724C159.186 45.7267 160.787 49.6108 160.342 50.7506L159.312 50.7881C158.148 50.857 157.153 51.1796 156.527 50.105C156.461 49.3847 157.953 46.4299 158.365 45.3724Z"/><path fill="#010101" transform="scale(1.86103 1.85714)" d="M151.625 25.4736C154.066 25.4454 164.093 24.9677 165.631 26.1234L165.39 25.9102L165.307 26.3668C163.111 26.9833 161.736 26.8919 159.473 26.8437L159.468 33.875C159.473 34.8623 159.572 38.8439 159.348 39.5383C158.614 39.7984 158.913 39.7911 158.14 39.5252C157.433 38.4847 157.762 28.8455 157.777 26.966C155.923 26.8533 154.071 27.2356 152.331 26.8033C151.623 26.2394 151.814 26.4607 151.625 25.4736Z"/><path fill="#010101" transform="scale(1.86103 1.85714)" d="M51.601 29.8081C56.1895 30.2241 66.4104 29.4701 62.0915 39.2242C61.3084 40.9929 59.3024 41.5688 57.4823 41.9321C58.686 43.6418 63.8329 50.0628 63.9116 51.5855C62.7475 52.24 61.5085 51.6733 60.7937 50.6387C58.6654 47.606 56.4845 44.6105 54.2518 41.6538C54.1731 43.1984 54.2406 50.9423 53.6904 51.6608C52.8963 51.7881 52.6921 51.7573 51.8963 51.6394C51.426 51.0415 51.6643 32.4101 51.601 29.8081Z"/><path fill="white" transform="scale(1.86103 1.85714)" d="M54.1858 32.1433C58.4467 32.5994 63.1725 33.7354 59.3945 38.9881C57.6135 39.9408 56.1992 39.9653 54.2227 40.1232C54.0395 37.4082 54.0955 34.856 54.1858 32.1433Z"/><path fill="#010101" transform="scale(1.86103 1.85714)" d="M191.421 29.1223L191.74 29.3032C193.091 31.4879 201.314 50.5604 201.137 51.49C200.536 51.7814 200.186 51.696 199.534 51.6244C198.024 50.737 197.012 47.251 196.34 45.4979L191.875 45.5161L186.724 45.5179C186.214 46.8194 184.69 50.8609 183.883 51.6317C183.084 51.7427 182.87 51.7228 182.07 51.6215L181.834 51.1939C182.209 49.4017 183.928 46.0483 184.696 44.245C186.807 39.2903 189.497 34.1213 191.421 29.1223Z"/><path fill="white" transform="scale(1.86103 1.85714)" d="M191.377 34.8673C192.327 35.2934 194.678 42.0115 195.206 43.4912C194.356 43.369 193.426 43.339 192.562 43.2933C190.924 43.2519 189.51 43.2895 187.872 43.3563C188.836 40.6756 190.264 37.5583 191.377 34.8673Z"/><path fill="#010101" transform="scale(1.86103 1.85714)" d="M76.0648 29.1106C76.5971 29.4236 85.6551 49.9716 85.6428 51.4954L85.3127 51.8067C82.4153 51.6125 81.7544 47.8891 80.8664 45.4837C79.3472 45.5391 77.6223 45.5084 76.0851 45.5174L71.1987 45.5165C70.6415 46.9636 69.4762 50.4663 68.4231 51.5919C68.2999 51.7235 66.8164 51.646 66.4852 51.6022C66.0463 50.2183 74.7085 32.0837 76.0648 29.1106Z"/><path fill="white" transform="scale(1.86103 1.85714)" d="M76.0712 34.6943C76.8484 35.8369 79.1551 41.8082 79.8208 43.4634C78.6953 43.2789 77.3425 43.3031 76.1875 43.2878L72.3177 43.2757C73.5248 40.3961 74.7761 37.5354 76.0712 34.6943Z"/><path fill="#010101" transform="scale(1.86103 1.85714)" d="M237.989 29.304C238.67 29.5144 254.041 45.3403 255.379 47.0295C255.078 42.6236 255.393 34.6263 255.447 29.9604L257.787 29.8702C257.912 37.3095 257.636 44.9382 257.844 52.3439C257.104 52.1711 241.963 36.5546 240.463 34.7617L240.418 44.6654C240.43 46.802 241.059 50.573 239.305 51.8702C238.529 51.8771 238.798 51.973 238.209 51.5144C237.821 49.9181 237.914 45.1201 237.916 43.3151C237.914 38.6446 237.939 33.9742 237.989 29.304Z"/><path fill="#010101" transform="scale(1.86103 1.85714)" d="M265.731 29.8457C268 32.6174 262.269 49.0965 270.954 49.7392C281.61 50.5279 274.645 32.3396 277.897 29.7163C279.941 29.8036 279.554 31.8033 279.51 33.3413C279.525 37.5599 280.676 47.0761 277.117 50.2309C275.498 51.6658 272.1 52.1747 269.897 51.8771C262.374 50.8607 263.67 42.8072 263.674 37.3367C263.68 34.9767 263.467 32.5724 263.753 30.2896C264.318 29.8444 264.934 29.9225 265.731 29.8457Z"/><path fill="#010101" transform="scale(1.86103 1.85714)" d="M221.784 29.8403C223.985 30.0944 232.101 29.3241 233.374 30.3904C233.376 31.2802 233.478 30.9618 232.993 31.7229C231.456 32.6433 226.351 32.2543 224.258 32.2376L224.249 38.6499C225.951 38.7142 231.796 38.4216 232.677 38.9291C233.211 39.7264 233.102 39.3967 233.119 40.372C232.042 41.9676 226.178 40.068 224.373 41.2879L224.256 42.1875L224.241 49.4353C225.741 49.4294 232.396 49.2379 233.198 49.7503C233.237 50.3456 233.356 51.062 233.085 51.5688C231.113 51.9197 223.965 51.7427 221.747 51.7348C221.702 44.4367 221.714 37.1383 221.784 29.8403Z"/><path fill="#010101" transform="scale(1.86103 1.85714)" d="M287.822 29.8743C290.825 29.8222 293.906 29.895 296.916 29.9357L296.891 32.2155L287.769 32.2441L287.768 38.6841C290.019 38.734 295.11 38.0053 296.552 39.5269C296.614 40.3194 296.722 40.1882 296.362 40.7879C294.393 41.1839 290.004 41.0068 287.774 41.0006L287.757 44.4342L287.76 49.4356C289.202 49.4402 296.242 49.2095 296.926 49.9316C296.86 50.8352 296.996 50.9249 296.55 51.5714C294.641 51.9374 287.527 51.7496 285.291 51.7482L285.265 38.2774C285.264 36.1165 285.155 32.2121 285.4 30.1863C286.008 29.7836 287.056 29.8773 287.822 29.8743Z"/><path fill="#010101" transform="scale(1.86103 1.85714)" d="M106.275 29.8348C109.505 30.0724 114.498 29.4774 117.581 30.0596C117.921 30.482 117.797 31.217 117.773 31.7938C116.752 32.4846 110.432 32.2562 108.743 32.2492L108.743 38.6838C110.079 38.6878 116.139 38.5221 117.021 38.8348C117.669 39.5446 117.511 39.2489 117.642 40.2146C117.551 40.389 117.446 40.5908 117.327 40.82C114.921 41.4426 111.124 40.2682 108.894 41.3283C108.775 41.3846 108.753 42.2032 108.733 42.4375L108.742 49.4361C110.188 49.4395 117.127 49.204 117.818 49.9345C117.773 50.8609 117.92 50.9319 117.466 51.5763C115.355 51.9234 108.625 51.7511 106.255 51.7482L106.275 29.8348Z"/><path fill="#010101" transform="scale(1.86103 1.85714)" d="M201.903 29.7156C202.202 29.748 202.573 29.7671 202.848 29.8914C203.875 30.3558 208.712 44.3716 209.552 46.5952L213.525 35.9833C214.02 34.6691 215.258 31.1931 215.91 30.1234C216.532 29.7453 217.278 29.8854 218.013 29.9376L218.193 30.3566C218.085 31.6165 217.013 33.9867 216.498 35.2574C214.172 41.1801 211.707 47.2518 209.519 53.2114C208.624 50.4712 200.62 31.0873 200.906 30.0678L201.903 29.7156Z"/><path fill="#010101" transform="scale(1.86103 1.85714)" d="M100.347 29.8864L103.005 29.8778C102.261 31.9754 101.429 34.1031 100.641 36.1896C99.0605 40.1721 94.983 49.7765 94.0379 53.4783C92.4332 47.2665 88.5933 40.2017 86.5786 33.9902C86.1608 32.7021 85.6087 31.7098 85.3282 30.3288C85.9659 29.7922 86.3099 29.9231 87.2582 29.8304L87.5109 29.9131C88.203 30.4879 93.4844 45.0517 94.0562 46.8598C95.092 42.9982 98.8199 33.9175 100.347 29.8864Z"/><path fill="#010101" transform="scale(1.86103 1.85714)" d="M172.756 70.5181C178.938 70.4914 184.337 73.9839 179.521 80.2053C177.485 81.8676 175.227 81.7576 172.755 81.7098C172.667 78.0559 172.743 74.1878 172.756 70.5181Z"/><path fill="white" transform="scale(1.86103 1.85714)" d="M174.01 71.7025C179.136 71.7902 181.534 74.8633 178.664 79.4542C177.291 80.1262 175.466 80.4227 173.977 80.6778L174.01 71.7025Z"/><path fill="#010101" transform="scale(1.86103 1.85714)" d="M37.8572 29.8658C40.1369 29.8416 45.9183 29.6509 47.9528 30.0559L48.2149 30.4488C48.2372 31.4811 48.4213 31.4717 47.8926 32.0427C46.6847 32.3891 44.1733 32.2574 42.8162 32.2396C42.7242 37.6346 42.7895 43.2156 42.784 48.625C42.8234 50.0459 43.021 52.2753 40.8897 51.8803C40.8511 51.8322 40.495 51.3891 40.495 51.389C40.1159 45.0902 40.398 38.5591 40.2861 32.2489C39.0418 32.2718 35.9203 32.487 35.0503 31.9466C34.9314 31.1778 34.8776 30.9603 35.1446 30.2232C36.0191 29.6982 36.7205 29.8796 37.8572 29.8658Z"/><path fill="#010101" transform="scale(1.86103 1.85714)" d="M124.301 29.7551C124.394 29.784 124.703 30.0277 124.804 30.1021C125.212 34.8375 124.896 44.2169 124.933 49.4504C126.714 49.4519 134.272 48.9954 135.244 50.1134C135.439 51.0245 135.458 50.6896 135.06 51.5714L134.538 51.7107L122.449 51.7417C122.445 45.9787 122.098 35.6711 122.542 30.2909C123.074 29.7564 123.399 29.8812 124.301 29.7551Z"/><path fill="#010101" transform="scale(1.86103 1.85714)" d="M93.289 70.5103C99.4416 70.6773 99.0087 71.3631 98.4426 75.7709C98.3909 76.1739 99.8768 77.4718 99.977 78.0745C100.138 79.0423 99.7583 79.7406 99.3577 80.5667C97.7189 81.8622 95.3062 81.7573 93.3417 81.7577C93.1855 78.2581 93.2906 74.0611 93.289 70.5103Z"/><path fill="white" transform="scale(1.86103 1.85714)" d="M94.5302 76.662C97.122 76.5706 99.7832 76.659 98.2194 80.1296L94.5869 80.7529L94.5302 76.662Z"/><path fill="white" transform="scale(1.86103 1.85714)" d="M94.5454 71.6788C96.0602 71.7305 96.8291 71.7224 97.6547 73.0443C97.7987 73.9874 97.6324 74.235 97.1926 75.0928C96.1568 75.4643 95.6438 75.8142 94.7209 75.1411C94.3112 74.2842 94.5011 72.6867 94.5454 71.6788Z"/><path fill="#010101" transform="scale(1.86103 1.85714)" d="M119.248 70.4943C119.989 70.5281 122.014 70.561 122.595 70.8489C126.709 72.8865 125.469 75.3665 122.129 76.8302C123.054 77.9036 125.194 80.368 125.114 81.7784C124.52 81.8135 124.591 81.7141 124.037 81.2773L120.505 76.4278L120.514 77.4215C120.521 78.6613 120.712 81.0261 119.934 81.8123L119.673 81.6128C118.95 79.7616 119.227 72.8666 119.248 70.4943Z"/><path fill="white" transform="scale(1.86103 1.85714)" d="M120.499 71.6843C122.763 71.7448 124.908 72.6895 123.234 75.1831C122.246 75.6201 121.653 76.0111 120.707 75.3921C120.26 74.5349 120.461 72.7271 120.499 71.6843Z"/><path fill="#010101" transform="scale(1.86103 1.85714)" d="M140.778 79.2316C140.81 77.4135 140.698 71.6415 141.412 70.4111L141.795 70.5168C142.681 72.229 142.137 79.319 142.15 81.8436L141.832 81.8734C139.148 79.3328 135.84 75.7438 133.256 73.0525C133.395 75.939 133.335 78.8317 133.074 81.7099L132.848 81.8639C131.506 79.733 131.895 72.9013 132.133 70.3356C132.906 70.6974 139.581 77.9578 140.778 79.2316Z"/><path fill="#010101" transform="scale(1.86103 1.85714)" d="M218.36 70.3325L218.797 70.5749C219.567 72.1465 223.327 80.2748 223.351 81.5495L222.941 81.7918C221.157 81.0079 223.021 78.5284 218.438 78.5691L216.136 78.6249C215.723 79.5811 214.903 81.987 213.814 81.747C213.642 80.6105 217.65 72.4804 218.36 70.3325Z"/><path fill="white" transform="scale(1.86103 1.85714)" d="M218.511 73.1473C219.352 73.8584 220.346 76.2396 219.866 77.4204L218.742 77.5661C217.624 77.4835 217.628 77.683 217.059 77.0521C216.942 75.8383 217.914 74.3542 218.511 73.1473Z"/><path fill="#010101" transform="scale(1.86103 1.85714)" d="M149.029 70.1543C149.57 70.6385 153.829 80.6624 153.529 81.9068C152.43 81.4945 151.805 79.5989 151.404 78.5816L148.973 78.5483C148.285 78.6447 147.275 78.609 146.555 78.605C146.061 79.6666 145.603 80.8887 144.718 81.6367L144.476 81.438C144.75 78.9857 147.778 72.5724 149.029 70.1543Z"/><path fill="white" transform="scale(1.86103 1.85714)" d="M148.79 73.1298C149.573 73.6333 150.704 76.4301 150.462 77.3853L149.812 77.4367C148.843 77.5032 148.136 77.7512 147.464 77.0286C147.329 76.3823 148.443 74.0816 148.79 73.1298Z"/><path fill="#010101" transform="scale(1.86103 1.85714)" d="M197.965 70.5416C200.058 70.5168 201.764 70.3524 203.745 71.1141L203.642 71.3744C202.049 71.8914 200.789 71.7805 199.119 71.7514L199.209 75.0943C200.506 75.086 202.164 75.0293 203.412 75.1914L203.688 75.6542C203.07 76.8943 200.355 75.7743 199.177 76.5466C199.201 77.7654 199.125 79.2713 199.097 80.5126C200.16 80.4905 202.833 80.235 203.529 81.086C202.472 82.024 199.333 81.7628 197.873 81.7212C197.72 78.8709 197.759 73.3017 197.965 70.5416Z"/><path fill="#010101" transform="scale(1.86103 1.85714)" d="M183.525 70.5308C185.327 70.5292 187.86 70.4076 189.45 71.1874L189.294 71.3987C187.791 71.8603 186.331 71.766 184.759 71.7588L184.772 75.0695L185.85 75.0823C187.246 75.1009 188.591 74.8477 189.45 75.7297L189.322 76.0688C188.597 76.4058 186.389 76.1276 185.051 76.3553L184.765 76.7623L184.76 80.5313C186.009 80.4971 188.294 80.2554 189.211 81.0791C188.064 82.0029 185.028 81.7266 183.509 81.6728C183.564 77.9983 183.521 74.2148 183.525 70.5308Z"/><path fill="#010101" transform="scale(1.86103 1.85714)" d="M161.808 70.513C163.638 70.4007 164.414 70.532 165.447 72.0361C164.768 72.7411 162.196 70.759 160.955 72.765C161.206 74.934 165.77 75.962 166.31 78.4727C166.765 80.5932 164.112 81.6338 162.513 82.0611C160.428 81.4796 159.983 81.1578 159.342 79.1141C160.355 78.9066 161.692 81.4352 164.166 80.2271C167.643 75.9972 154.013 74.6924 161.808 70.513Z"/><path fill="#010101" transform="scale(1.86103 1.85714)" d="M209.359 79.2721L210.4 76.4147C210.881 75.1092 212.271 71.0247 213.454 70.4794C213.765 71.2577 213.432 71.9505 213.161 72.744C212.252 74.7411 210.031 80.5531 209.482 82.5228C208.504 79.7041 205.252 72.87 205.119 70.3109L205.83 70.5375C206.86 71.5585 208.825 77.6266 209.359 79.2721Z"/><path fill="#010101" transform="scale(1.86103 1.85714)" d="M104.999 75.6461C105.79 74.2462 107.198 71.4323 108.63 70.8073L108.773 71.1557C108.549 72.38 107.434 73.9993 106.749 75.1165C105.533 77.1386 105.865 80.9522 104.906 81.6678C104.17 80.7909 104.699 78.1443 104.295 76.9063C103.562 74.6597 101.487 72.8469 101.04 70.436C102.659 70.547 104.256 74.2485 104.999 75.6461Z"/><path fill="#010101" transform="scale(1.86103 1.85714)" d="M191.946 70.2997L192.573 70.5565C193.333 71.4018 193.024 78.9521 193.007 80.5384C194.266 80.4832 195.13 80.259 196.106 80.8692L196.246 81.638C194.781 81.7203 193.229 81.6799 191.754 81.6652C191.726 79.0234 191.555 72.7736 191.946 70.2997Z"/><path fill="#010101" transform="scale(1.86103 1.85714)" d="M128.014 70.3088L128.722 70.6581C129.375 72.1403 129.061 80.0775 128.909 81.9965C128.439 81.8519 128.386 81.823 128.054 81.4601C127.452 79.7053 127.714 72.27 128.014 70.3088Z"/><path fill="#010101" transform="scale(1.86103 1.85714)" d="M168.728 70.306L169.441 70.5925C170.124 71.7246 169.799 80.3046 169.612 81.9462C169.44 81.895 168.977 81.6665 168.794 81.5811C168.179 80.2503 168.565 72.1118 168.728 70.306Z"/><path fill="#010101" transform="scale(1.86103 1.85714)" d="M115.396 70.2974L115.939 70.5225C116.686 71.4117 116.513 80.927 115.897 82.1522C114.456 80.8776 115.047 72.4472 115.396 70.2974Z"/></svg>